<svg xmlns="http://www.w3.org/2000/svg" width="110" height="123" viewBox="0 0 110 123">
  <g id="Group_730" data-name="Group 730" transform="translate(-153 -416)">
    <g id="city-svgrepo-com" transform="translate(175 416)">
      <path id="Path_2011" data-name="Path 2011" d="M64,31a.936.936,0,0,0-.025-.212A32,32,0,0,0,9.373,9.373,32,32,0,0,0,54.627,54.627,31.791,31.791,0,0,0,64,32q0-.431-.012-.86A.954.954,0,0,0,64,31ZM10.7,10.7A30.121,30.121,0,0,1,62.058,30.059H58.99V30a.939.939,0,0,0-.939-.939H54.982V26.99a.939.939,0,0,0-.939-.939H51.977V23.984a.939.939,0,1,0-1.879,0v2.067h-.063a.939.939,0,0,0-.939.939v.063H47.969V16.971a.939.939,0,0,0-.939-.939H43.022a.939.939,0,0,0-.939.939v9.08H40.955V23.984a.939.939,0,0,0-.939-.939H36.947V16.971a.939.939,0,0,0-.456-.805l-5.01-3.006a.939.939,0,0,0-1.423.805v5.072H27.93V7.953a.939.939,0,1,0-1.879,0v3.372l-4.419,1.768a.939.939,0,0,0-.59.872V24.047H18.912V21.98a.939.939,0,0,0-.939-.939H13.965a.939.939,0,0,0-.939.939v3.372L10.9,26.2v-2.22a.939.939,0,1,0-1.879,0v2.971l-.412.165a.939.939,0,0,0-.59.872v1.065H4.947A.939.939,0,0,0,4.008,30v1.065H1.895A29.908,29.908,0,0,1,10.7,10.7ZM62.121,32a30.572,30.572,0,0,1-.273,4.07H58.99V31.937h3.13C62.121,31.958,62.121,31.979,62.121,32Zm-7.139,4.07V30.935h2.129V36.07Zm-7.014,0V28.932H49.1V36.07Zm-7.014,0V27.93h1.127V36.07Zm-6.012,0V34.8l4.133-.689v1.96ZM32,56.11a.939.939,0,0,0-.939.939v5.056a30.008,30.008,0,0,1-10.83-2.363L32,38.919,43.77,59.742a30.009,30.009,0,0,1-10.83,2.363V57.049A.939.939,0,0,0,32,56.11ZM22.92,36.07V14.6l3.131-1.252V36.07Zm-4.008,0V25.926h2.129V36.07Zm-6.012,0V32.939h4.133V36.07Zm-3.006,0V28.628l3.131-1.252v3.685H11.961a.939.939,0,0,0-.939.939v4.07Zm-4.008,0V30.935H8.016V36.07Zm-3.735,0a30.48,30.48,0,0,1-.257-3.131H4.008V36.07Zm14.881-5.01H14.9V22.92h2.129Zm10.9-10.145h2.129V36.07H27.93ZM32.017,36.07h-.08V15.624L35.068,17.5V32.874l-1.219.2a.939.939,0,0,0-.785.927V36.07Zm7.059-3.864-2.129.355V24.924h2.129Zm4.885-14.3H46.09V36.07H43.961Zm7.014,10.02H53.1V36.07H50.975ZM2.463,37.949H30.39l-11.871,21a30.257,30.257,0,0,1-16.056-21ZM53.3,53.3a30.178,30.178,0,0,1-7.818,5.653l-11.871-21H61.537A29.909,29.909,0,0,1,53.3,53.3Z" fill="#4059ad"/>
      <path id="Path_2012" data-name="Path 2012" d="M250.563,401.282a1.282,1.282,0,1,0-2.563,0v4.1a1.282,1.282,0,1,0,2.563,0Z" transform="translate(-217.282 -354.967)" fill="#4059ad"/>
      <path id="Path_2013" data-name="Path 2013" d="M249.282,371.93a1.282,1.282,0,0,0,1.282-1.282v-1.367a1.282,1.282,0,0,0-2.563,0v1.367A1.282,1.282,0,0,0,249.282,371.93Z" transform="translate(-217.282 -322.701)" fill="#4059ad"/>
      <path id="Path_2014" data-name="Path 2014" d="M249.282,346.563a1.284,1.284,0,1,0-.906-.376A1.286,1.286,0,0,0,249.282,346.563Z" transform="translate(-217.282 -301.391)" fill="#4059ad"/>
    </g>
    <text id="NuCity" transform="translate(153 530)" fill="#4059ad" font-size="32" font-family="OpenSans-Bold, Open Sans" font-weight="700"><tspan x="0" y="0">NuCity</tspan></text>
  </g>
</svg>
